<svg width="40" height="40" viewBox="0 0 40 40" fill="none" xmlns="http://www.w3.org/2000/svg">
<path d="M35.3284 19.8C34.2552 17.9 33.0845 16.2 31.9137 14.7C31.8162 14.6 31.7186 14.4 31.621 14.3C31.0357 13.5 31.1332 12.9 31.1332 12.9C30.743 8.9 30.3528 7.1 30.3528 6.6C30.2552 6 30.0601 5.5 29.2796 5.4C28.5967 5.3 27.7186 5.2 26.6454 5.2C25.7674 5.2 25.6698 6.1 25.6698 6.1V7.6C25.6698 7.7 25.6698 7.8 25.4747 7.9C25.3771 7.9 25.3771 7.9 25.2796 7.8C22.743 5.7 20.9869 4.6 20.7918 4.5C20.304 4 19.7186 4 19.7186 4C19.7186 4 19.2308 4 18.8406 4.3C18.3528 4.6 10.3528 9.3 4.20641 19.7C4.20641 19.7 3.81617 20.2 4.10885 20.8C4.40153 21.3 4.88934 21.3 4.88934 21.3C4.88934 21.3 7.03568 21.6 7.42592 21.6C7.91373 21.6 7.91373 22 7.91373 22C7.91373 22 7.81617 28.6 8.69421 35.6C8.69421 35.6 8.79178 36.4 9.57226 36.4C9.86495 36.4 10.9381 36.3 13.8649 36.3C14.0601 36.3 14.0601 36.2 14.0601 36.1C13.7674 33.1 13.6698 30.6 13.6698 30.4C13.6698 30.2 13.4747 30.2 13.4747 30.2C11.621 29.1 11.7186 27.1 11.7186 27.1C11.7186 21.2 12.1088 16.7 12.1088 16.7C12.1088 16.7 12.1088 16.1 12.6942 16.1C13.182 16.1 13.182 16.8 13.182 16.8C12.9869 19.3 12.8893 23.9 12.8893 23.9C12.8893 23.9 12.8893 24.8 13.6698 24.8C14.4503 24.8 14.4503 23.9 14.4503 23.9C14.4503 20.3 14.743 16.8 14.743 16.8C14.743 16.8 14.743 16.2 15.3284 16.2C15.8162 16.2 15.8162 16.9 15.8162 16.9C15.621 20 15.5235 24 15.5235 24C15.5235 24 15.5235 24.9 16.304 24.9C17.0845 24.9 17.0845 24 17.0845 24C17.0845 21 17.3771 16.9 17.3771 16.9C17.3771 16.9 17.3771 16.3 17.9625 16.3C18.4503 16.3 18.4503 16.9 18.4503 16.9C18.1576 20.1 18.1576 25 18.1576 27.1C18.1576 29.2 16.6942 30.1 16.4991 30.2C16.304 30.3 16.4015 30.5 16.4015 30.5C16.4991 32.4 16.5967 34.6 16.7918 36.2C16.7918 36.3 16.8893 36.4 16.9869 36.4H23.621C23.7186 36.4 23.8162 36.3 23.8162 36.2C24.1088 33.4 24.2064 31.4 24.2064 31.2C24.2064 31 24.0113 31 24.0113 31C23.621 31 22.8406 30.8 22.0601 30.7C21.3771 30.6 21.2796 29.7 21.2796 29.7C20.6942 21 25.182 15.5 25.182 15.5C25.182 15.5 25.5723 14.9 26.2552 15.1C26.8406 15.3 26.8406 16 26.8406 16C27.4259 23.3 26.8406 32.7 26.4503 36.1C26.4503 36.3 26.5479 36.4 26.6454 36.4C28.5967 36.5 29.4747 36.5 29.6698 36.5C30.4503 36.4 30.5479 35.7 30.5479 35.7C31.5235 28.9 31.3284 22.1 31.3284 22.1C31.3284 22.1 31.3284 21.7 31.8162 21.6C32.2064 21.6 34.3528 21.3 34.3528 21.3C34.3528 21.3 34.8406 21.3 35.1332 20.8C35.621 20.3 35.3284 19.8 35.3284 19.8Z" fill="black"/>
</svg>
